<?xml version="1.0" encoding="UTF-8"?>
<svg width="522px" height="105px" viewBox="0 0 522 105" version="1.1" xmlns="http://www.w3.org/2000/svg" xmlns:xlink="http://www.w3.org/1999/xlink">
    <title>Group</title>
    <g id="Page-1" stroke="none" stroke-width="1" fill="none" fill-rule="evenodd">
        <g id="Grandient-sans-rectangle-Copy" transform="translate(-104, -130)" fill="#11243E">
            <g id="MoneyLife" transform="translate(97.5344, 105.75)" fill-rule="nonzero">
                <g>
                    <polygon id="Path" points="6.6796875 109 21.6533203 109 21.6533203 54.671875 22.0986328 54.671875 43.8076172 109 54.3837891 109 76.0371094 54.671875 76.5380859 54.671875 76.5380859 109 91.5117188 109 91.5117188 28.6767578 72.0849609 28.6767578 49.2626953 86.4003906 48.9287109 86.4003906 26.1064453 28.6767578 6.6796875 28.6767578"></polygon>
                    <path d="M129.614991,110.224609 C147.650148,110.224609 159.172609,98.6464844 159.172609,79.1640625 L159.172609,79.0527344 C159.172609,59.7373047 147.427491,48.1035156 129.559327,48.1035156 C111.746827,48.1035156 100.057374,59.8486328 100.057374,79.0527344 L100.057374,79.1640625 C100.057374,98.5908203 111.468507,110.224609 129.614991,110.224609 Z M129.670655,97.4775391 C121.65503,97.4775391 116.589601,90.8535156 116.589601,79.1640625 L116.589601,79.0527344 C116.589601,67.5302734 121.710695,60.8505859 129.559327,60.8505859 C137.463624,60.8505859 142.640382,67.5302734 142.640382,79.0527344 L142.640382,79.1640625 C142.640382,90.7978516 137.574952,97.4775391 129.670655,97.4775391 Z" id="Shape"></path>
                    <path d="M166.270998,109 L182.524905,109 L182.524905,74.7109375 C182.524905,66.9179687 187.145022,61.5742188 194.437014,61.5742188 C201.729006,61.5742188 205.402834,66.0273438 205.402834,73.8203125 L205.402834,109 L221.656741,109 L221.656741,70.4804688 C221.656741,56.5087891 214.197756,48.1035156 201.061038,48.1035156 C192.043459,48.1035156 185.920413,52.2783203 182.858889,59.125 L182.524905,59.125 L182.524905,49.328125 L166.270998,49.328125 L166.270998,109 Z" id="Path"></path>
                    <path d="M257.867435,110.224609 C274.900638,110.224609 283.13892,100.149414 284.975834,91.3544922 L285.142826,90.7421875 L270.224857,90.7421875 L270.113529,91.0761719 C268.944584,94.4160156 264.881107,98.0898437 258.20142,98.0898437 C249.907474,98.0898437 244.730716,92.5234375 244.563724,83.0048828 L285.643802,83.0048828 L285.643802,77.9951172 C285.643802,59.9599609 274.677982,48.1035156 257.199466,48.1035156 C239.720951,48.1035156 228.532474,60.2382813 228.532474,79.2197266 L228.532474,79.2753906 C228.532474,98.3681641 239.609623,110.224609 257.867435,110.224609 Z M257.477787,60.2382812 C264.213138,60.2382812 269.055912,64.5244141 270.057865,72.7626953 L244.730716,72.7626953 C245.788334,64.6914062 250.798099,60.2382812 257.477787,60.2382812 Z" id="Shape"></path>
                    <path d="M299.867192,128.649414 C313.115239,128.649414 321.130864,124.140625 325.806645,110.057617 L346.29102,49.328125 L329.146489,49.328125 L316.510747,95.9746094 L316.065434,95.9746094 L303.485356,49.328125 L285.617192,49.328125 L306.713872,109 L305.990239,110.948242 C304.542974,115.011719 301.871099,116.40332 297.028325,116.40332 C294.63477,116.40332 292.742192,116.069336 291.573247,115.84668 L291.573247,127.925781 C293.465825,128.259766 296.694341,128.649414 299.867192,128.649414 Z" id="Path"></path>
                    <polygon id="Path" points="352.109137 109 404.043707 109 404.043707 95.1396484 368.919684 95.1396484 368.919684 28.6767578 352.109137 28.6767578"></polygon>
                    <path d="M419.825691,41.6464844 C424.724128,41.6464844 428.509284,37.8056641 428.509284,33.1855469 C428.509284,28.5654297 424.724128,24.7246094 419.825691,24.7246094 C414.927253,24.7246094 411.142097,28.5654297 411.142097,33.1855469 C411.142097,37.8056641 414.927253,41.6464844 419.825691,41.6464844 Z M411.698738,109 L427.952644,109 L427.952644,49.328125 L411.698738,49.328125 L411.698738,109 Z" id="Shape"></path>
                    <path d="M441.897713,109 L458.15162,109 L458.15162,61.5742188 L469.618417,61.5742188 L469.618417,49.328125 L457.761971,49.328125 L457.761971,45.1533203 C457.761971,40.8671875 460.155526,38.5849609 465.55494,38.5849609 C467.05787,38.5849609 468.616463,38.640625 469.729745,38.8632812 L469.729745,28.1201172 C467.837167,27.7304688 464.552987,27.4521484 461.547127,27.4521484 C447.46412,27.4521484 441.897713,32.8515625 441.897713,44.5410156 L441.897713,49.328125 L433.77076,49.328125 L433.77076,61.5742188 L441.897713,61.5742188 L441.897713,109 Z" id="Path"></path>
                    <path d="M499.873056,110.224609 C516.90626,110.224609 525.144541,100.149414 526.981455,91.3544922 L527.148447,90.7421875 L512.230478,90.7421875 L512.11915,91.0761719 C510.950205,94.4160156 506.886728,98.0898437 500.207041,98.0898437 C491.913095,98.0898437 486.736338,92.5234375 486.569345,83.0048828 L527.649424,83.0048828 L527.649424,77.9951172 C527.649424,59.9599609 516.683603,48.1035156 499.205088,48.1035156 C481.726572,48.1035156 470.538095,60.2382813 470.538095,79.2197266 L470.538095,79.2753906 C470.538095,98.3681641 481.615244,110.224609 499.873056,110.224609 Z M499.483408,60.2382812 C506.21876,60.2382812 511.061533,64.5244141 512.063486,72.7626953 L486.736338,72.7626953 C487.793955,64.6914062 492.80372,60.2382812 499.483408,60.2382812 Z" id="Shape"></path>
                </g>
            </g>
        </g>
    </g>
</svg>