<?xml version="1.0" encoding="UTF-8"?>
<svg width="136px" height="38px" viewBox="0 0 136 38" version="1.1" xmlns="http://www.w3.org/2000/svg" xmlns:xlink="http://www.w3.org/1999/xlink">
    <title>Logo entier blanc1</title>
    <g id="Page-1" stroke="none" stroke-width="1" fill="none" fill-rule="evenodd">
        <g id="Large-3-Copy" transform="translate(-42, -33)">
            <g id="Group" transform="translate(42.2524, 33.2115)">
                <text id="MoneyLife" font-family="DMSerifText-Regular, DM Serif Text" font-size="20.0875" font-weight="normal" letter-spacing="-0.220472564" fill="#FFFFFF">
                    <tspan x="45.7536018" y="25.7536018">MoneyLife</tspan>
                </text>
                <g transform="translate(0, 0)">
                    <rect id="Rectangle-8" fill="#FFFFFF" x="0" y="0" width="37.5072035" height="37.5072035" rx="2.45000005"></rect>
                    <path d="M9.43404347,18.5617978 L27.4590435,9.76337659 C27.8064631,9.59379298 28.2255771,9.73795759 28.3951607,10.0853773 C28.44184,10.1810072 28.4661018,10.2860211 28.4661018,10.3924356 L28.4661018,18.3163468 C28.4661018,18.5838961 28.3135948,18.828044 28.0731601,18.9454057 L10.0481601,27.7438269 C9.70074039,27.9134106 9.2816264,27.7692459 9.11204279,27.4218263 C9.06536357,27.3261963 9.04110177,27.2211824 9.04110177,27.114768 L9.04110177,19.1908568 C9.04110177,18.9233074 9.19360872,18.6791596 9.43404347,18.5617978 Z" id="Rectangle-9" fill="#001D38"></path>
                </g>
            </g>
        </g>
    </g>
</svg>