<?xml version="1.0" encoding="UTF-8"?>
<svg width="72px" height="72px" viewBox="0 0 72 72" version="1.1" xmlns="http://www.w3.org/2000/svg" xmlns:xlink="http://www.w3.org/1999/xlink">
    <title>Graphic</title>
    <g id="Graphic" stroke="none" fill="none" fill-rule="evenodd" stroke-linecap="round" stroke-width="1">
        <g id="Group" stroke="#FF5EA9">
            <path d="M39,24 C39,16.4267741 32.8261296,10.158594 24.7938858,9.1436804 C24.0442737,9.04896321 19.4075723,9.19967344 17.9677973,9.57259158 C11.055022,11.3630793 6,17.147269 6,24 L12,24 L15,21 L18,24 L30,24" id="Path" stroke-width="5" stroke-linejoin="round"></path>
            <path d="M39,21.42 C42.037824,19.1740504 45.7221714,17.9740058 49.5,18 C50.4625204,18 51.4056597,18.0748513 52.3227876,18.2184881 C53.0833677,18.337607 55.8925282,19.1516254 56.5329269,19.4262709 C60.2646823,21.0266957 63.4203733,25.5512721 66,33 L57,33 L54,30 L51,33 L42,33" id="Path" stroke-width="4" stroke-linejoin="round" transform="translate(52.5, 25.4998) rotate(7) translate(-52.5, -25.4998)"></path>
            <path d="M16.62,51.42 C18.4316827,49.6040445 19.7904447,48.2420778 20.6962861,47.3341 C21.4783438,46.5501979 22.4762592,44.4522412 23.6900324,41.0402299 L29.34,38.67 L31.44,36.57 L33.57,34.44 L39.93,28.08 C34.08,22.2 24.12,22.68 17.67,29.13 C13.37,33.43 13.02,40.86 16.62,51.42 Z" id="Path" stroke-width="5" stroke-linejoin="round"></path>
            <path d="M32.7362185,44.5966786 C34.2362185,52.6014978 32.49,62.4231322 30,68.8269875 C33.6521892,68.8269875 36.3913312,68.8269875 38.2174258,68.8269875 C39.0579978,68.8269875 40.3188559,68.8269875 42,68.8269875 C42.3775726,67.7187739 42.7016849,66.5978806 42.9771961,65.4686962 C47.0798286,48.6540302 40.4056068,30.0008686 39,24" id="Path" stroke-width="5"></path>
        </g>
    </g>
</svg>